<?xml version="1.0" encoding="UTF-8" standalone="no"?>
<!DOCTYPE svg PUBLIC "-//W3C//DTD SVG 1.1//EN"
 "http://www.w3.org/Graphics/SVG/1.1/DTD/svg11.dtd">
<!-- Generated by graphviz version 2.40.1 (20161225.0304)
 -->
<!-- Title: %3 Pages: 1 -->
<svg width="127pt" height="204pt"
 viewBox="0.00 0.00 126.85 204.00" xmlns="http://www.w3.org/2000/svg" xmlns:xlink="http://www.w3.org/1999/xlink">
<g id="graph0" class="graph" transform="scale(1 1) rotate(0) translate(4 200)">
<title>%3</title>
<polygon fill="#ffffff" stroke="transparent" points="-4,4 -4,-200 122.8472,-200 122.8472,4 -4,4"/>
<!-- A -->
<g id="node1" class="node">
<title>A</title>
<ellipse fill="none" stroke="#000000" cx="65.8472" cy="-178" rx="31.6951" ry="18"/>
<text text-anchor="middle" x="65.8472" y="-174.3" font-family="Times,serif" font-size="14.00" fill="#000000">Node A</text>
</g>
<!-- B -->
<g id="node2" class="node">
<title>B</title>
<ellipse fill="none" stroke="#000000" cx="31.8472" cy="-91" rx="31.6951" ry="18"/>
<text text-anchor="middle" x="31.8472" y="-87.3" font-family="Times,serif" font-size="14.00" fill="#000000">Node B</text>
</g>
<!-- A&#45;&gt;B -->
<g id="edge1" class="edge">
<title>A&#45;&gt;B</title>
<path fill="none" stroke="#000000" d="M58.9668,-160.3943C54.22,-148.2482 47.8184,-131.8674 42.4267,-118.0711"/>
<polygon fill="#000000" stroke="#000000" points="45.6173,-116.6196 38.7173,-108.5796 39.0975,-119.1676 45.6173,-116.6196"/>
<text text-anchor="middle" x="66.8472" y="-130.8" font-family="Times,serif" font-size="14.00" fill="#000000">Edge 1</text>
</g>
<!-- C -->
<g id="node3" class="node">
<title>C</title>
<ellipse fill="none" stroke="#000000" cx="65.8472" cy="-18" rx="27" ry="18"/>
<text text-anchor="middle" x="65.8472" y="-14.3" font-family="Times,serif" font-size="14.00" fill="#000000">C</text>
</g>
<!-- A&#45;&gt;C -->
<g id="edge2" class="edge">
<title>A&#45;&gt;C</title>
<path fill="none" stroke="#000000" d="M77.5014,-161.1769C80.8825,-155.3679 84.1255,-148.6443 85.8472,-142 94.3564,-109.1618 85.1383,-70.4436 76.5958,-45.1181"/>
<polygon fill="#000000" stroke="#000000" points="79.8081,-43.7059 73.1514,-35.4634 73.2151,-46.058 79.8081,-43.7059"/>
<text text-anchor="middle" x="103.8472" y="-87.3" font-family="Times,serif" font-size="14.00" fill="#000000">Edge 2</text>
</g>
<!-- B&#45;&gt;C -->
<g id="edge3" class="edge">
<title>B&#45;&gt;C</title>
<path fill="none" stroke="#000000" d="M40.0776,-73.3287C44.0869,-64.7207 48.9922,-54.1886 53.4431,-44.6322"/>
<polygon fill="#000000" stroke="#000000" points="56.6432,-46.0513 57.6925,-35.5085 50.2977,-43.0958 56.6432,-46.0513"/>
</g>
</g>
</svg>
