<?xml version="1.0" encoding="UTF-8" standalone="no"?>
<!DOCTYPE svg PUBLIC "-//W3C//DTD SVG 1.1//EN"
 "http://www.w3.org/Graphics/SVG/1.1/DTD/svg11.dtd">
<!-- Generated by graphviz version 2.40.1 (20161225.0304)
 -->
<!-- Title: %3 Pages: 1 -->
<svg width="141pt" height="228pt"
 viewBox="0.00 0.00 141.03 228.00" xmlns="http://www.w3.org/2000/svg" xmlns:xlink="http://www.w3.org/1999/xlink">
<g id="graph0" class="graph" transform="scale(1 1) rotate(0) translate(4 224)">
<title>%3</title>
<polygon fill="#333333" stroke="transparent" points="-4,4 -4,-224 137.0254,-224 137.0254,4 -4,4"/>
<text text-anchor="middle" x="66.5127" y="-9.2" font-family="Times,serif" font-size="16.00" fill="#ffffff">A Fancy Graph</text>
<!-- A -->
<g id="node1" class="node">
<title>A</title>
<polygon fill="#006699" stroke="#ffffff" points="128.0763,-44 108.5508,-62 69.5,-62 49.9746,-44 69.5,-26 108.5508,-26 128.0763,-44"/>
<text text-anchor="middle" x="89.0254" y="-40.3" font-family="Helvetica,sans-Serif" font-size="14.00" fill="#ffffff">Node A</text>
</g>
<!-- B -->
<g id="node2" class="node">
<title>B</title>
<polygon fill="#006699" stroke="#ffffff" points="78.0763,-129 58.5508,-147 19.5,-147 -.0254,-129 19.5,-111 58.5508,-111 78.0763,-129"/>
<text text-anchor="middle" x="39.0254" y="-125.3" font-family="Helvetica,sans-Serif" font-size="14.00" fill="#ffffff">Node B</text>
</g>
<!-- A&#45;&gt;B -->
<g id="edge1" class="edge">
<title>A&#45;&gt;B</title>
<path fill="none" stroke="#ffffff" stroke-dasharray="5,2" d="M77.7289,-62.2513C74.2601,-67.918 70.4544,-74.199 67.0254,-80 62.8188,-87.1167 58.3434,-94.865 54.2335,-102.0556"/>
<polygon fill="#ffffff" stroke="#ffffff" points="49.2707,-110.7758 50.306,-99.8588 51.7438,-106.4302 54.217,-102.0847 54.217,-102.0847 54.217,-102.0847 51.7438,-106.4302 58.128,-104.3105 49.2707,-110.7758 49.2707,-110.7758"/>
<text text-anchor="middle" x="83.5254" y="-83.4" font-family="Courier,monospace" font-size="12.00" fill="#ffffff">Edge 1</text>
</g>
<!-- C -->
<g id="node3" class="node">
<title>C</title>
<polygon fill="#006699" stroke="#ffffff" points="103.0254,-202 89.5254,-220 62.5254,-220 49.0254,-202 62.5254,-184 89.5254,-184 103.0254,-202"/>
<text text-anchor="middle" x="76.0254" y="-198.3" font-family="Helvetica,sans-Serif" font-size="14.00" fill="#ffffff">C</text>
</g>
<!-- A&#45;&gt;C -->
<g id="edge2" class="edge">
<title>A&#45;&gt;C</title>
<path fill="none" stroke="#ffffff" stroke-dasharray="5,2" d="M95.691,-62.0722C97.4667,-67.7317 99.1372,-74.0535 100.0254,-80 104.9023,-112.6499 95.3877,-149.8284 86.9357,-174.4733"/>
<polygon fill="#ffffff" stroke="#ffffff" points="83.5431,-183.9015 82.6947,-172.9685 85.236,-179.1968 86.929,-174.4921 86.929,-174.4921 86.929,-174.4921 85.236,-179.1968 91.1632,-176.0158 83.5431,-183.9015 83.5431,-183.9015"/>
<text text-anchor="middle" x="116.5254" y="-125.9" font-family="Courier,monospace" font-size="12.00" fill="#ffffff">Edge 2</text>
</g>
<!-- B&#45;&gt;C -->
<g id="edge3" class="edge">
<title>B&#45;&gt;C</title>
<path fill="none" stroke="#ffffff" stroke-dasharray="5,2" d="M48.1715,-147.0449C52.4408,-155.4681 57.612,-165.6708 62.334,-174.9872"/>
<polygon fill="#ffffff" stroke="#ffffff" points="66.8563,-183.9096 58.3215,-177.0244 64.5958,-179.4498 62.3353,-174.9899 62.3353,-174.9899 62.3353,-174.9899 64.5958,-179.4498 66.3492,-172.9555 66.8563,-183.9096 66.8563,-183.9096"/>
</g>
</g>
</svg>
