<?xml version="1.0" encoding="UTF-8" standalone="no"?>
<!DOCTYPE svg PUBLIC "-//W3C//DTD SVG 1.1//EN"
 "http://www.w3.org/Graphics/SVG/1.1/DTD/svg11.dtd">
<!-- Generated by graphviz version 2.40.1 (20161225.0304)
 -->
<!-- Title: neural network Pages: 1 -->
<svg width="602pt" height="260pt"
 viewBox="0.00 0.00 602.00 260.00" xmlns="http://www.w3.org/2000/svg" xmlns:xlink="http://www.w3.org/1999/xlink">
<g id="graph0" class="graph" transform="scale(1 1) rotate(0) translate(4 256)">
<title>neural network</title>
<polygon fill="#ffffff" stroke="transparent" points="-4,4 -4,-256 598,-256 598,4 -4,4"/>
<!-- x0 -->
<g id="node1" class="node">
<title>x0</title>
<ellipse fill="none" stroke="#000000" cx="27" cy="-180" rx="27" ry="18"/>
<text text-anchor="middle" x="27" y="-176.3" font-family="Times,serif" font-size="14.00" fill="#000000">x0</text>
</g>
<!-- h00 -->
<g id="node2" class="node">
<title>h00</title>
<ellipse fill="none" stroke="#000000" cx="117" cy="-180" rx="27" ry="18"/>
<text text-anchor="middle" x="117" y="-176.3" font-family="Times,serif" font-size="14.00" fill="#000000">h00</text>
</g>
<!-- x0&#45;&gt;h00 -->
<g id="edge1" class="edge">
<title>x0&#45;&gt;h00</title>
<path fill="none" stroke="#000000" d="M54.003,-180C62.0277,-180 70.9665,-180 79.5309,-180"/>
<polygon fill="#000000" stroke="#000000" points="79.7051,-183.5001 89.705,-180 79.705,-176.5001 79.7051,-183.5001"/>
</g>
<!-- h01 -->
<g id="node3" class="node">
<title>h01</title>
<ellipse fill="none" stroke="#000000" cx="117" cy="-126" rx="27" ry="18"/>
<text text-anchor="middle" x="117" y="-122.3" font-family="Times,serif" font-size="14.00" fill="#000000">h01</text>
</g>
<!-- x0&#45;&gt;h01 -->
<g id="edge2" class="edge">
<title>x0&#45;&gt;h01</title>
<path fill="none" stroke="#000000" d="M47.4224,-167.7466C59.3897,-160.5662 74.7024,-151.3785 87.9143,-143.4514"/>
<polygon fill="#000000" stroke="#000000" points="89.8842,-146.3512 96.6584,-138.2049 86.2827,-140.3487 89.8842,-146.3512"/>
</g>
<!-- h02 -->
<g id="node4" class="node">
<title>h02</title>
<ellipse fill="none" stroke="#000000" cx="117" cy="-72" rx="27" ry="18"/>
<text text-anchor="middle" x="117" y="-68.3" font-family="Times,serif" font-size="14.00" fill="#000000">h02</text>
</g>
<!-- x0&#45;&gt;h02 -->
<g id="edge3" class="edge">
<title>x0&#45;&gt;h02</title>
<path fill="none" stroke="#000000" d="M42.9703,-165.0777C46.7402,-161.276 50.6378,-157.1013 54,-153 72.287,-130.6934 71.713,-121.3066 90,-99 91.2608,-97.462 92.597,-95.9137 93.9734,-94.3786"/>
<polygon fill="#000000" stroke="#000000" points="96.6983,-96.5913 101.0297,-86.9223 91.614,-91.7798 96.6983,-96.5913"/>
</g>
<!-- h10 -->
<g id="node7" class="node">
<title>h10</title>
<ellipse fill="none" stroke="#000000" cx="207" cy="-99" rx="27" ry="18"/>
<text text-anchor="middle" x="207" y="-95.3" font-family="Times,serif" font-size="14.00" fill="#000000">h10</text>
</g>
<!-- h00&#45;&gt;h10 -->
<g id="edge10" class="edge">
<title>h00&#45;&gt;h10</title>
<path fill="none" stroke="#000000" d="M133.0902,-165.5188C146.9542,-153.0413 167.1669,-134.8498 182.9519,-120.6433"/>
<polygon fill="#000000" stroke="#000000" points="185.6541,-122.9201 190.7457,-113.6289 180.9713,-117.717 185.6541,-122.9201"/>
</g>
<!-- h11 -->
<g id="node8" class="node">
<title>h11</title>
<ellipse fill="none" stroke="#000000" cx="207" cy="-45" rx="27" ry="18"/>
<text text-anchor="middle" x="207" y="-41.3" font-family="Times,serif" font-size="14.00" fill="#000000">h11</text>
</g>
<!-- h00&#45;&gt;h11 -->
<g id="edge11" class="edge">
<title>h00&#45;&gt;h11</title>
<path fill="none" stroke="#000000" d="M133.4805,-165.461C137.235,-161.6476 140.9976,-157.3716 144,-153 166.3032,-120.5259 157.6968,-104.4741 180,-72 181.1259,-70.3607 182.3587,-68.7348 183.6579,-67.1416"/>
<polygon fill="#000000" stroke="#000000" points="186.4177,-69.3077 190.5195,-59.539 181.2212,-64.6176 186.4177,-69.3077"/>
</g>
<!-- h12 -->
<g id="node9" class="node">
<title>h12</title>
<ellipse fill="none" stroke="#000000" cx="207" cy="-207" rx="27" ry="18"/>
<text text-anchor="middle" x="207" y="-203.3" font-family="Times,serif" font-size="14.00" fill="#000000">h12</text>
</g>
<!-- h00&#45;&gt;h12 -->
<g id="edge12" class="edge">
<title>h00&#45;&gt;h12</title>
<path fill="none" stroke="#000000" d="M142.07,-187.521C151.5102,-190.3531 162.4169,-193.6251 172.564,-196.6692"/>
<polygon fill="#000000" stroke="#000000" points="171.7915,-200.0915 182.3755,-199.6126 173.803,-193.3867 171.7915,-200.0915"/>
</g>
<!-- h13 -->
<g id="node10" class="node">
<title>h13</title>
<ellipse fill="none" stroke="#000000" cx="207" cy="-153" rx="27" ry="18"/>
<text text-anchor="middle" x="207" y="-149.3" font-family="Times,serif" font-size="14.00" fill="#000000">h13</text>
</g>
<!-- h00&#45;&gt;h13 -->
<g id="edge13" class="edge">
<title>h00&#45;&gt;h13</title>
<path fill="none" stroke="#000000" d="M142.07,-172.479C151.5102,-169.6469 162.4169,-166.3749 172.564,-163.3308"/>
<polygon fill="#000000" stroke="#000000" points="173.803,-166.6133 182.3755,-160.3874 171.7915,-159.9085 173.803,-166.6133"/>
</g>
<!-- h01&#45;&gt;h10 -->
<g id="edge14" class="edge">
<title>h01&#45;&gt;h10</title>
<path fill="none" stroke="#000000" d="M142.07,-118.479C151.5102,-115.6469 162.4169,-112.3749 172.564,-109.3308"/>
<polygon fill="#000000" stroke="#000000" points="173.803,-112.6133 182.3755,-106.3874 171.7915,-105.9085 173.803,-112.6133"/>
</g>
<!-- h01&#45;&gt;h11 -->
<g id="edge15" class="edge">
<title>h01&#45;&gt;h11</title>
<path fill="none" stroke="#000000" d="M133.0902,-111.5188C146.9542,-99.0413 167.1669,-80.8498 182.9519,-66.6433"/>
<polygon fill="#000000" stroke="#000000" points="185.6541,-68.9201 190.7457,-59.6289 180.9713,-63.717 185.6541,-68.9201"/>
</g>
<!-- h01&#45;&gt;h12 -->
<g id="edge16" class="edge">
<title>h01&#45;&gt;h12</title>
<path fill="none" stroke="#000000" d="M133.0902,-140.4812C146.9542,-152.9587 167.1669,-171.1502 182.9519,-185.3567"/>
<polygon fill="#000000" stroke="#000000" points="180.9713,-188.283 190.7457,-192.3711 185.6541,-183.0799 180.9713,-188.283"/>
</g>
<!-- h01&#45;&gt;h13 -->
<g id="edge17" class="edge">
<title>h01&#45;&gt;h13</title>
<path fill="none" stroke="#000000" d="M142.07,-133.521C151.5102,-136.3531 162.4169,-139.6251 172.564,-142.6692"/>
<polygon fill="#000000" stroke="#000000" points="171.7915,-146.0915 182.3755,-145.6126 173.803,-139.3867 171.7915,-146.0915"/>
</g>
<!-- h02&#45;&gt;h10 -->
<g id="edge18" class="edge">
<title>h02&#45;&gt;h10</title>
<path fill="none" stroke="#000000" d="M142.07,-79.521C151.5102,-82.3531 162.4169,-85.6251 172.564,-88.6692"/>
<polygon fill="#000000" stroke="#000000" points="171.7915,-92.0915 182.3755,-91.6126 173.803,-85.3867 171.7915,-92.0915"/>
</g>
<!-- h02&#45;&gt;h11 -->
<g id="edge19" class="edge">
<title>h02&#45;&gt;h11</title>
<path fill="none" stroke="#000000" d="M142.07,-64.479C151.5102,-61.6469 162.4169,-58.3749 172.564,-55.3308"/>
<polygon fill="#000000" stroke="#000000" points="173.803,-58.6133 182.3755,-52.3874 171.7915,-51.9085 173.803,-58.6133"/>
</g>
<!-- h02&#45;&gt;h12 -->
<g id="edge20" class="edge">
<title>h02&#45;&gt;h12</title>
<path fill="none" stroke="#000000" d="M133.4805,-86.539C137.235,-90.3524 140.9976,-94.6284 144,-99 166.3032,-131.4741 157.6968,-147.5259 180,-180 181.1259,-181.6393 182.3587,-183.2652 183.6579,-184.8584"/>
<polygon fill="#000000" stroke="#000000" points="181.2212,-187.3824 190.5195,-192.461 186.4177,-182.6923 181.2212,-187.3824"/>
</g>
<!-- h02&#45;&gt;h13 -->
<g id="edge21" class="edge">
<title>h02&#45;&gt;h13</title>
<path fill="none" stroke="#000000" d="M133.0902,-86.4812C146.9542,-98.9587 167.1669,-117.1502 182.9519,-131.3567"/>
<polygon fill="#000000" stroke="#000000" points="180.9713,-134.283 190.7457,-138.3711 185.6541,-129.0799 180.9713,-134.283"/>
</g>
<!-- x1 -->
<g id="node5" class="node">
<title>x1</title>
<ellipse fill="none" stroke="#000000" cx="27" cy="-126" rx="27" ry="18"/>
<text text-anchor="middle" x="27" y="-122.3" font-family="Times,serif" font-size="14.00" fill="#000000">x1</text>
</g>
<!-- x1&#45;&gt;h00 -->
<g id="edge4" class="edge">
<title>x1&#45;&gt;h00</title>
<path fill="none" stroke="#000000" d="M47.4224,-138.2534C59.3897,-145.4338 74.7024,-154.6215 87.9143,-162.5486"/>
<polygon fill="#000000" stroke="#000000" points="86.2827,-165.6513 96.6584,-167.7951 89.8842,-159.6488 86.2827,-165.6513"/>
</g>
<!-- x1&#45;&gt;h01 -->
<g id="edge5" class="edge">
<title>x1&#45;&gt;h01</title>
<path fill="none" stroke="#000000" d="M54.003,-126C62.0277,-126 70.9665,-126 79.5309,-126"/>
<polygon fill="#000000" stroke="#000000" points="79.7051,-129.5001 89.705,-126 79.705,-122.5001 79.7051,-129.5001"/>
</g>
<!-- x1&#45;&gt;h02 -->
<g id="edge6" class="edge">
<title>x1&#45;&gt;h02</title>
<path fill="none" stroke="#000000" d="M47.4224,-113.7466C59.3897,-106.5662 74.7024,-97.3785 87.9143,-89.4514"/>
<polygon fill="#000000" stroke="#000000" points="89.8842,-92.3512 96.6584,-84.2049 86.2827,-86.3487 89.8842,-92.3512"/>
</g>
<!-- x2 -->
<g id="node6" class="node">
<title>x2</title>
<ellipse fill="none" stroke="#000000" cx="27" cy="-72" rx="27" ry="18"/>
<text text-anchor="middle" x="27" y="-68.3" font-family="Times,serif" font-size="14.00" fill="#000000">x2</text>
</g>
<!-- x2&#45;&gt;h00 -->
<g id="edge7" class="edge">
<title>x2&#45;&gt;h00</title>
<path fill="none" stroke="#000000" d="M42.9703,-86.9223C46.7402,-90.724 50.6378,-94.8987 54,-99 72.287,-121.3066 71.713,-130.6934 90,-153 91.2608,-154.538 92.597,-156.0863 93.9734,-157.6214"/>
<polygon fill="#000000" stroke="#000000" points="91.614,-160.2202 101.0297,-165.0777 96.6983,-155.4087 91.614,-160.2202"/>
</g>
<!-- x2&#45;&gt;h01 -->
<g id="edge8" class="edge">
<title>x2&#45;&gt;h01</title>
<path fill="none" stroke="#000000" d="M47.4224,-84.2534C59.3897,-91.4338 74.7024,-100.6215 87.9143,-108.5486"/>
<polygon fill="#000000" stroke="#000000" points="86.2827,-111.6513 96.6584,-113.7951 89.8842,-105.6488 86.2827,-111.6513"/>
</g>
<!-- x2&#45;&gt;h02 -->
<g id="edge9" class="edge">
<title>x2&#45;&gt;h02</title>
<path fill="none" stroke="#000000" d="M54.003,-72C62.0277,-72 70.9665,-72 79.5309,-72"/>
<polygon fill="#000000" stroke="#000000" points="79.7051,-75.5001 89.705,-72 79.705,-68.5001 79.7051,-75.5001"/>
</g>
<!-- h20 -->
<g id="node11" class="node">
<title>h20</title>
<ellipse fill="none" stroke="#000000" cx="297" cy="-180" rx="27" ry="18"/>
<text text-anchor="middle" x="297" y="-176.3" font-family="Times,serif" font-size="14.00" fill="#000000">h20</text>
</g>
<!-- h10&#45;&gt;h20 -->
<g id="edge22" class="edge">
<title>h10&#45;&gt;h20</title>
<path fill="none" stroke="#000000" d="M223.0902,-113.4812C236.9542,-125.9587 257.1669,-144.1502 272.9519,-158.3567"/>
<polygon fill="#000000" stroke="#000000" points="270.9713,-161.283 280.7457,-165.3711 275.6541,-156.0799 270.9713,-161.283"/>
</g>
<!-- h21 -->
<g id="node12" class="node">
<title>h21</title>
<ellipse fill="none" stroke="#000000" cx="297" cy="-126" rx="27" ry="18"/>
<text text-anchor="middle" x="297" y="-122.3" font-family="Times,serif" font-size="14.00" fill="#000000">h21</text>
</g>
<!-- h10&#45;&gt;h21 -->
<g id="edge23" class="edge">
<title>h10&#45;&gt;h21</title>
<path fill="none" stroke="#000000" d="M232.07,-106.521C241.5102,-109.3531 252.4169,-112.6251 262.564,-115.6692"/>
<polygon fill="#000000" stroke="#000000" points="261.7915,-119.0915 272.3755,-118.6126 263.803,-112.3867 261.7915,-119.0915"/>
</g>
<!-- h22 -->
<g id="node13" class="node">
<title>h22</title>
<ellipse fill="none" stroke="#000000" cx="297" cy="-72" rx="27" ry="18"/>
<text text-anchor="middle" x="297" y="-68.3" font-family="Times,serif" font-size="14.00" fill="#000000">h22</text>
</g>
<!-- h10&#45;&gt;h22 -->
<g id="edge24" class="edge">
<title>h10&#45;&gt;h22</title>
<path fill="none" stroke="#000000" d="M232.07,-91.479C241.5102,-88.6469 252.4169,-85.3749 262.564,-82.3308"/>
<polygon fill="#000000" stroke="#000000" points="263.803,-85.6133 272.3755,-79.3874 261.7915,-78.9085 263.803,-85.6133"/>
</g>
<!-- h23 -->
<g id="node14" class="node">
<title>h23</title>
<ellipse fill="none" stroke="#000000" cx="297" cy="-18" rx="27" ry="18"/>
<text text-anchor="middle" x="297" y="-14.3" font-family="Times,serif" font-size="14.00" fill="#000000">h23</text>
</g>
<!-- h10&#45;&gt;h23 -->
<g id="edge25" class="edge">
<title>h10&#45;&gt;h23</title>
<path fill="none" stroke="#000000" d="M223.0902,-84.5188C236.9542,-72.0413 257.1669,-53.8498 272.9519,-39.6433"/>
<polygon fill="#000000" stroke="#000000" points="275.6541,-41.9201 280.7457,-32.6289 270.9713,-36.717 275.6541,-41.9201"/>
</g>
<!-- h24 -->
<g id="node15" class="node">
<title>h24</title>
<ellipse fill="none" stroke="#000000" cx="297" cy="-234" rx="27" ry="18"/>
<text text-anchor="middle" x="297" y="-230.3" font-family="Times,serif" font-size="14.00" fill="#000000">h24</text>
</g>
<!-- h10&#45;&gt;h24 -->
<g id="edge26" class="edge">
<title>h10&#45;&gt;h24</title>
<path fill="none" stroke="#000000" d="M223.4805,-113.539C227.235,-117.3524 230.9976,-121.6284 234,-126 256.3032,-158.4741 247.6968,-174.5259 270,-207 271.1259,-208.6393 272.3587,-210.2652 273.6579,-211.8584"/>
<polygon fill="#000000" stroke="#000000" points="271.2212,-214.3824 280.5195,-219.461 276.4177,-209.6923 271.2212,-214.3824"/>
</g>
<!-- h11&#45;&gt;h20 -->
<g id="edge27" class="edge">
<title>h11&#45;&gt;h20</title>
<path fill="none" stroke="#000000" d="M223.4805,-59.539C227.235,-63.3524 230.9976,-67.6284 234,-72 256.3032,-104.4741 247.6968,-120.5259 270,-153 271.1259,-154.6393 272.3587,-156.2652 273.6579,-157.8584"/>
<polygon fill="#000000" stroke="#000000" points="271.2212,-160.3824 280.5195,-165.461 276.4177,-155.6923 271.2212,-160.3824"/>
</g>
<!-- h11&#45;&gt;h21 -->
<g id="edge28" class="edge">
<title>h11&#45;&gt;h21</title>
<path fill="none" stroke="#000000" d="M223.0902,-59.4812C236.9542,-71.9587 257.1669,-90.1502 272.9519,-104.3567"/>
<polygon fill="#000000" stroke="#000000" points="270.9713,-107.283 280.7457,-111.3711 275.6541,-102.0799 270.9713,-107.283"/>
</g>
<!-- h11&#45;&gt;h22 -->
<g id="edge29" class="edge">
<title>h11&#45;&gt;h22</title>
<path fill="none" stroke="#000000" d="M232.07,-52.521C241.5102,-55.3531 252.4169,-58.6251 262.564,-61.6692"/>
<polygon fill="#000000" stroke="#000000" points="261.7915,-65.0915 272.3755,-64.6126 263.803,-58.3867 261.7915,-65.0915"/>
</g>
<!-- h11&#45;&gt;h23 -->
<g id="edge30" class="edge">
<title>h11&#45;&gt;h23</title>
<path fill="none" stroke="#000000" d="M232.07,-37.479C241.5102,-34.6469 252.4169,-31.3749 262.564,-28.3308"/>
<polygon fill="#000000" stroke="#000000" points="263.803,-31.6133 272.3755,-25.3874 261.7915,-24.9085 263.803,-31.6133"/>
</g>
<!-- h11&#45;&gt;h24 -->
<g id="edge31" class="edge">
<title>h11&#45;&gt;h24</title>
<path fill="none" stroke="#000000" d="M223.9817,-59.2231C227.721,-63.046 231.3511,-67.4056 234,-72 265.0162,-125.7959 238.9838,-153.2041 270,-207 270.9933,-208.7229 272.1247,-210.4128 273.348,-212.0537"/>
<polygon fill="#000000" stroke="#000000" points="270.833,-214.4965 280.0183,-219.7769 276.1307,-209.921 270.833,-214.4965"/>
</g>
<!-- h12&#45;&gt;h20 -->
<g id="edge32" class="edge">
<title>h12&#45;&gt;h20</title>
<path fill="none" stroke="#000000" d="M232.07,-199.479C241.5102,-196.6469 252.4169,-193.3749 262.564,-190.3308"/>
<polygon fill="#000000" stroke="#000000" points="263.803,-193.6133 272.3755,-187.3874 261.7915,-186.9085 263.803,-193.6133"/>
</g>
<!-- h12&#45;&gt;h21 -->
<g id="edge33" class="edge">
<title>h12&#45;&gt;h21</title>
<path fill="none" stroke="#000000" d="M223.0902,-192.5188C236.9542,-180.0413 257.1669,-161.8498 272.9519,-147.6433"/>
<polygon fill="#000000" stroke="#000000" points="275.6541,-149.9201 280.7457,-140.6289 270.9713,-144.717 275.6541,-149.9201"/>
</g>
<!-- h12&#45;&gt;h22 -->
<g id="edge34" class="edge">
<title>h12&#45;&gt;h22</title>
<path fill="none" stroke="#000000" d="M223.4805,-192.461C227.235,-188.6476 230.9976,-184.3716 234,-180 256.3032,-147.5259 247.6968,-131.4741 270,-99 271.1259,-97.3607 272.3587,-95.7348 273.6579,-94.1416"/>
<polygon fill="#000000" stroke="#000000" points="276.4177,-96.3077 280.5195,-86.539 271.2212,-91.6176 276.4177,-96.3077"/>
</g>
<!-- h12&#45;&gt;h23 -->
<g id="edge35" class="edge">
<title>h12&#45;&gt;h23</title>
<path fill="none" stroke="#000000" d="M223.9817,-192.7769C227.721,-188.954 231.3511,-184.5944 234,-180 265.0162,-126.2041 238.9838,-98.7959 270,-45 270.9933,-43.2771 272.1247,-41.5872 273.348,-39.9463"/>
<polygon fill="#000000" stroke="#000000" points="276.1307,-42.079 280.0183,-32.2231 270.833,-37.5035 276.1307,-42.079"/>
</g>
<!-- h12&#45;&gt;h24 -->
<g id="edge36" class="edge">
<title>h12&#45;&gt;h24</title>
<path fill="none" stroke="#000000" d="M232.07,-214.521C241.5102,-217.3531 252.4169,-220.6251 262.564,-223.6692"/>
<polygon fill="#000000" stroke="#000000" points="261.7915,-227.0915 272.3755,-226.6126 263.803,-220.3867 261.7915,-227.0915"/>
</g>
<!-- h13&#45;&gt;h20 -->
<g id="edge37" class="edge">
<title>h13&#45;&gt;h20</title>
<path fill="none" stroke="#000000" d="M232.07,-160.521C241.5102,-163.3531 252.4169,-166.6251 262.564,-169.6692"/>
<polygon fill="#000000" stroke="#000000" points="261.7915,-173.0915 272.3755,-172.6126 263.803,-166.3867 261.7915,-173.0915"/>
</g>
<!-- h13&#45;&gt;h21 -->
<g id="edge38" class="edge">
<title>h13&#45;&gt;h21</title>
<path fill="none" stroke="#000000" d="M232.07,-145.479C241.5102,-142.6469 252.4169,-139.3749 262.564,-136.3308"/>
<polygon fill="#000000" stroke="#000000" points="263.803,-139.6133 272.3755,-133.3874 261.7915,-132.9085 263.803,-139.6133"/>
</g>
<!-- h13&#45;&gt;h22 -->
<g id="edge39" class="edge">
<title>h13&#45;&gt;h22</title>
<path fill="none" stroke="#000000" d="M223.0902,-138.5188C236.9542,-126.0413 257.1669,-107.8498 272.9519,-93.6433"/>
<polygon fill="#000000" stroke="#000000" points="275.6541,-95.9201 280.7457,-86.6289 270.9713,-90.717 275.6541,-95.9201"/>
</g>
<!-- h13&#45;&gt;h23 -->
<g id="edge40" class="edge">
<title>h13&#45;&gt;h23</title>
<path fill="none" stroke="#000000" d="M223.4805,-138.461C227.235,-134.6476 230.9976,-130.3716 234,-126 256.3032,-93.5259 247.6968,-77.4741 270,-45 271.1259,-43.3607 272.3587,-41.7348 273.6579,-40.1416"/>
<polygon fill="#000000" stroke="#000000" points="276.4177,-42.3077 280.5195,-32.539 271.2212,-37.6176 276.4177,-42.3077"/>
</g>
<!-- h13&#45;&gt;h24 -->
<g id="edge41" class="edge">
<title>h13&#45;&gt;h24</title>
<path fill="none" stroke="#000000" d="M223.0902,-167.4812C236.9542,-179.9587 257.1669,-198.1502 272.9519,-212.3567"/>
<polygon fill="#000000" stroke="#000000" points="270.9713,-215.283 280.7457,-219.3711 275.6541,-210.0799 270.9713,-215.283"/>
</g>
<!-- h30 -->
<g id="node16" class="node">
<title>h30</title>
<ellipse fill="none" stroke="#000000" cx="387" cy="-99" rx="27" ry="18"/>
<text text-anchor="middle" x="387" y="-95.3" font-family="Times,serif" font-size="14.00" fill="#000000">h30</text>
</g>
<!-- h20&#45;&gt;h30 -->
<g id="edge42" class="edge">
<title>h20&#45;&gt;h30</title>
<path fill="none" stroke="#000000" d="M313.0902,-165.5188C326.9542,-153.0413 347.1669,-134.8498 362.9519,-120.6433"/>
<polygon fill="#000000" stroke="#000000" points="365.6541,-122.9201 370.7457,-113.6289 360.9713,-117.717 365.6541,-122.9201"/>
</g>
<!-- h31 -->
<g id="node17" class="node">
<title>h31</title>
<ellipse fill="none" stroke="#000000" cx="387" cy="-45" rx="27" ry="18"/>
<text text-anchor="middle" x="387" y="-41.3" font-family="Times,serif" font-size="14.00" fill="#000000">h31</text>
</g>
<!-- h20&#45;&gt;h31 -->
<g id="edge43" class="edge">
<title>h20&#45;&gt;h31</title>
<path fill="none" stroke="#000000" d="M313.4805,-165.461C317.235,-161.6476 320.9976,-157.3716 324,-153 346.3032,-120.5259 337.6968,-104.4741 360,-72 361.1259,-70.3607 362.3587,-68.7348 363.6579,-67.1416"/>
<polygon fill="#000000" stroke="#000000" points="366.4177,-69.3077 370.5195,-59.539 361.2212,-64.6176 366.4177,-69.3077"/>
</g>
<!-- h32 -->
<g id="node18" class="node">
<title>h32</title>
<ellipse fill="none" stroke="#000000" cx="387" cy="-207" rx="27" ry="18"/>
<text text-anchor="middle" x="387" y="-203.3" font-family="Times,serif" font-size="14.00" fill="#000000">h32</text>
</g>
<!-- h20&#45;&gt;h32 -->
<g id="edge44" class="edge">
<title>h20&#45;&gt;h32</title>
<path fill="none" stroke="#000000" d="M322.07,-187.521C331.5102,-190.3531 342.4169,-193.6251 352.564,-196.6692"/>
<polygon fill="#000000" stroke="#000000" points="351.7915,-200.0915 362.3755,-199.6126 353.803,-193.3867 351.7915,-200.0915"/>
</g>
<!-- h33 -->
<g id="node19" class="node">
<title>h33</title>
<ellipse fill="none" stroke="#000000" cx="387" cy="-153" rx="27" ry="18"/>
<text text-anchor="middle" x="387" y="-149.3" font-family="Times,serif" font-size="14.00" fill="#000000">h33</text>
</g>
<!-- h20&#45;&gt;h33 -->
<g id="edge45" class="edge">
<title>h20&#45;&gt;h33</title>
<path fill="none" stroke="#000000" d="M322.07,-172.479C331.5102,-169.6469 342.4169,-166.3749 352.564,-163.3308"/>
<polygon fill="#000000" stroke="#000000" points="353.803,-166.6133 362.3755,-160.3874 351.7915,-159.9085 353.803,-166.6133"/>
</g>
<!-- h21&#45;&gt;h30 -->
<g id="edge46" class="edge">
<title>h21&#45;&gt;h30</title>
<path fill="none" stroke="#000000" d="M322.07,-118.479C331.5102,-115.6469 342.4169,-112.3749 352.564,-109.3308"/>
<polygon fill="#000000" stroke="#000000" points="353.803,-112.6133 362.3755,-106.3874 351.7915,-105.9085 353.803,-112.6133"/>
</g>
<!-- h21&#45;&gt;h31 -->
<g id="edge47" class="edge">
<title>h21&#45;&gt;h31</title>
<path fill="none" stroke="#000000" d="M313.0902,-111.5188C326.9542,-99.0413 347.1669,-80.8498 362.9519,-66.6433"/>
<polygon fill="#000000" stroke="#000000" points="365.6541,-68.9201 370.7457,-59.6289 360.9713,-63.717 365.6541,-68.9201"/>
</g>
<!-- h21&#45;&gt;h32 -->
<g id="edge48" class="edge">
<title>h21&#45;&gt;h32</title>
<path fill="none" stroke="#000000" d="M313.0902,-140.4812C326.9542,-152.9587 347.1669,-171.1502 362.9519,-185.3567"/>
<polygon fill="#000000" stroke="#000000" points="360.9713,-188.283 370.7457,-192.3711 365.6541,-183.0799 360.9713,-188.283"/>
</g>
<!-- h21&#45;&gt;h33 -->
<g id="edge49" class="edge">
<title>h21&#45;&gt;h33</title>
<path fill="none" stroke="#000000" d="M322.07,-133.521C331.5102,-136.3531 342.4169,-139.6251 352.564,-142.6692"/>
<polygon fill="#000000" stroke="#000000" points="351.7915,-146.0915 362.3755,-145.6126 353.803,-139.3867 351.7915,-146.0915"/>
</g>
<!-- h22&#45;&gt;h30 -->
<g id="edge50" class="edge">
<title>h22&#45;&gt;h30</title>
<path fill="none" stroke="#000000" d="M322.07,-79.521C331.5102,-82.3531 342.4169,-85.6251 352.564,-88.6692"/>
<polygon fill="#000000" stroke="#000000" points="351.7915,-92.0915 362.3755,-91.6126 353.803,-85.3867 351.7915,-92.0915"/>
</g>
<!-- h22&#45;&gt;h31 -->
<g id="edge51" class="edge">
<title>h22&#45;&gt;h31</title>
<path fill="none" stroke="#000000" d="M322.07,-64.479C331.5102,-61.6469 342.4169,-58.3749 352.564,-55.3308"/>
<polygon fill="#000000" stroke="#000000" points="353.803,-58.6133 362.3755,-52.3874 351.7915,-51.9085 353.803,-58.6133"/>
</g>
<!-- h22&#45;&gt;h32 -->
<g id="edge52" class="edge">
<title>h22&#45;&gt;h32</title>
<path fill="none" stroke="#000000" d="M313.4805,-86.539C317.235,-90.3524 320.9976,-94.6284 324,-99 346.3032,-131.4741 337.6968,-147.5259 360,-180 361.1259,-181.6393 362.3587,-183.2652 363.6579,-184.8584"/>
<polygon fill="#000000" stroke="#000000" points="361.2212,-187.3824 370.5195,-192.461 366.4177,-182.6923 361.2212,-187.3824"/>
</g>
<!-- h22&#45;&gt;h33 -->
<g id="edge53" class="edge">
<title>h22&#45;&gt;h33</title>
<path fill="none" stroke="#000000" d="M313.0902,-86.4812C326.9542,-98.9587 347.1669,-117.1502 362.9519,-131.3567"/>
<polygon fill="#000000" stroke="#000000" points="360.9713,-134.283 370.7457,-138.3711 365.6541,-129.0799 360.9713,-134.283"/>
</g>
<!-- h23&#45;&gt;h30 -->
<g id="edge54" class="edge">
<title>h23&#45;&gt;h30</title>
<path fill="none" stroke="#000000" d="M313.0902,-32.4812C326.9542,-44.9587 347.1669,-63.1502 362.9519,-77.3567"/>
<polygon fill="#000000" stroke="#000000" points="360.9713,-80.283 370.7457,-84.3711 365.6541,-75.0799 360.9713,-80.283"/>
</g>
<!-- h23&#45;&gt;h31 -->
<g id="edge55" class="edge">
<title>h23&#45;&gt;h31</title>
<path fill="none" stroke="#000000" d="M322.07,-25.521C331.5102,-28.3531 342.4169,-31.6251 352.564,-34.6692"/>
<polygon fill="#000000" stroke="#000000" points="351.7915,-38.0915 362.3755,-37.6126 353.803,-31.3867 351.7915,-38.0915"/>
</g>
<!-- h23&#45;&gt;h32 -->
<g id="edge56" class="edge">
<title>h23&#45;&gt;h32</title>
<path fill="none" stroke="#000000" d="M313.9817,-32.2231C317.721,-36.046 321.3511,-40.4056 324,-45 355.0162,-98.7959 328.9838,-126.2041 360,-180 360.9933,-181.7229 362.1247,-183.4128 363.348,-185.0537"/>
<polygon fill="#000000" stroke="#000000" points="360.833,-187.4965 370.0183,-192.7769 366.1307,-182.921 360.833,-187.4965"/>
</g>
<!-- h23&#45;&gt;h33 -->
<g id="edge57" class="edge">
<title>h23&#45;&gt;h33</title>
<path fill="none" stroke="#000000" d="M313.4805,-32.539C317.235,-36.3524 320.9976,-40.6284 324,-45 346.3032,-77.4741 337.6968,-93.5259 360,-126 361.1259,-127.6393 362.3587,-129.2652 363.6579,-130.8584"/>
<polygon fill="#000000" stroke="#000000" points="361.2212,-133.3824 370.5195,-138.461 366.4177,-128.6923 361.2212,-133.3824"/>
</g>
<!-- h24&#45;&gt;h30 -->
<g id="edge58" class="edge">
<title>h24&#45;&gt;h30</title>
<path fill="none" stroke="#000000" d="M313.4805,-219.461C317.235,-215.6476 320.9976,-211.3716 324,-207 346.3032,-174.5259 337.6968,-158.4741 360,-126 361.1259,-124.3607 362.3587,-122.7348 363.6579,-121.1416"/>
<polygon fill="#000000" stroke="#000000" points="366.4177,-123.3077 370.5195,-113.539 361.2212,-118.6176 366.4177,-123.3077"/>
</g>
<!-- h24&#45;&gt;h31 -->
<g id="edge59" class="edge">
<title>h24&#45;&gt;h31</title>
<path fill="none" stroke="#000000" d="M313.9817,-219.7769C317.721,-215.954 321.3511,-211.5944 324,-207 355.0162,-153.2041 328.9838,-125.7959 360,-72 360.9933,-70.2771 362.1247,-68.5872 363.348,-66.9463"/>
<polygon fill="#000000" stroke="#000000" points="366.1307,-69.079 370.0183,-59.2231 360.833,-64.5035 366.1307,-69.079"/>
</g>
<!-- h24&#45;&gt;h32 -->
<g id="edge60" class="edge">
<title>h24&#45;&gt;h32</title>
<path fill="none" stroke="#000000" d="M322.07,-226.479C331.5102,-223.6469 342.4169,-220.3749 352.564,-217.3308"/>
<polygon fill="#000000" stroke="#000000" points="353.803,-220.6133 362.3755,-214.3874 351.7915,-213.9085 353.803,-220.6133"/>
</g>
<!-- h24&#45;&gt;h33 -->
<g id="edge61" class="edge">
<title>h24&#45;&gt;h33</title>
<path fill="none" stroke="#000000" d="M313.0902,-219.5188C326.9542,-207.0413 347.1669,-188.8498 362.9519,-174.6433"/>
<polygon fill="#000000" stroke="#000000" points="365.6541,-176.9201 370.7457,-167.6289 360.9713,-171.717 365.6541,-176.9201"/>
</g>
<!-- h40 -->
<g id="node20" class="node">
<title>h40</title>
<ellipse fill="none" stroke="#000000" cx="477" cy="-180" rx="27" ry="18"/>
<text text-anchor="middle" x="477" y="-176.3" font-family="Times,serif" font-size="14.00" fill="#000000">h40</text>
</g>
<!-- h30&#45;&gt;h40 -->
<g id="edge62" class="edge">
<title>h30&#45;&gt;h40</title>
<path fill="none" stroke="#000000" d="M403.0902,-113.4812C416.9542,-125.9587 437.1669,-144.1502 452.9519,-158.3567"/>
<polygon fill="#000000" stroke="#000000" points="450.9713,-161.283 460.7457,-165.3711 455.6541,-156.0799 450.9713,-161.283"/>
</g>
<!-- h41 -->
<g id="node21" class="node">
<title>h41</title>
<ellipse fill="none" stroke="#000000" cx="477" cy="-126" rx="27" ry="18"/>
<text text-anchor="middle" x="477" y="-122.3" font-family="Times,serif" font-size="14.00" fill="#000000">h41</text>
</g>
<!-- h30&#45;&gt;h41 -->
<g id="edge63" class="edge">
<title>h30&#45;&gt;h41</title>
<path fill="none" stroke="#000000" d="M412.07,-106.521C421.5102,-109.3531 432.4169,-112.6251 442.564,-115.6692"/>
<polygon fill="#000000" stroke="#000000" points="441.7915,-119.0915 452.3755,-118.6126 443.803,-112.3867 441.7915,-119.0915"/>
</g>
<!-- h42 -->
<g id="node22" class="node">
<title>h42</title>
<ellipse fill="none" stroke="#000000" cx="477" cy="-72" rx="27" ry="18"/>
<text text-anchor="middle" x="477" y="-68.3" font-family="Times,serif" font-size="14.00" fill="#000000">h42</text>
</g>
<!-- h30&#45;&gt;h42 -->
<g id="edge64" class="edge">
<title>h30&#45;&gt;h42</title>
<path fill="none" stroke="#000000" d="M412.07,-91.479C421.5102,-88.6469 432.4169,-85.3749 442.564,-82.3308"/>
<polygon fill="#000000" stroke="#000000" points="443.803,-85.6133 452.3755,-79.3874 441.7915,-78.9085 443.803,-85.6133"/>
</g>
<!-- h31&#45;&gt;h40 -->
<g id="edge65" class="edge">
<title>h31&#45;&gt;h40</title>
<path fill="none" stroke="#000000" d="M403.4805,-59.539C407.235,-63.3524 410.9976,-67.6284 414,-72 436.3032,-104.4741 427.6968,-120.5259 450,-153 451.1259,-154.6393 452.3587,-156.2652 453.6579,-157.8584"/>
<polygon fill="#000000" stroke="#000000" points="451.2212,-160.3824 460.5195,-165.461 456.4177,-155.6923 451.2212,-160.3824"/>
</g>
<!-- h31&#45;&gt;h41 -->
<g id="edge66" class="edge">
<title>h31&#45;&gt;h41</title>
<path fill="none" stroke="#000000" d="M403.0902,-59.4812C416.9542,-71.9587 437.1669,-90.1502 452.9519,-104.3567"/>
<polygon fill="#000000" stroke="#000000" points="450.9713,-107.283 460.7457,-111.3711 455.6541,-102.0799 450.9713,-107.283"/>
</g>
<!-- h31&#45;&gt;h42 -->
<g id="edge67" class="edge">
<title>h31&#45;&gt;h42</title>
<path fill="none" stroke="#000000" d="M412.07,-52.521C421.5102,-55.3531 432.4169,-58.6251 442.564,-61.6692"/>
<polygon fill="#000000" stroke="#000000" points="441.7915,-65.0915 452.3755,-64.6126 443.803,-58.3867 441.7915,-65.0915"/>
</g>
<!-- h32&#45;&gt;h40 -->
<g id="edge68" class="edge">
<title>h32&#45;&gt;h40</title>
<path fill="none" stroke="#000000" d="M412.07,-199.479C421.5102,-196.6469 432.4169,-193.3749 442.564,-190.3308"/>
<polygon fill="#000000" stroke="#000000" points="443.803,-193.6133 452.3755,-187.3874 441.7915,-186.9085 443.803,-193.6133"/>
</g>
<!-- h32&#45;&gt;h41 -->
<g id="edge69" class="edge">
<title>h32&#45;&gt;h41</title>
<path fill="none" stroke="#000000" d="M403.0902,-192.5188C416.9542,-180.0413 437.1669,-161.8498 452.9519,-147.6433"/>
<polygon fill="#000000" stroke="#000000" points="455.6541,-149.9201 460.7457,-140.6289 450.9713,-144.717 455.6541,-149.9201"/>
</g>
<!-- h32&#45;&gt;h42 -->
<g id="edge70" class="edge">
<title>h32&#45;&gt;h42</title>
<path fill="none" stroke="#000000" d="M403.4805,-192.461C407.235,-188.6476 410.9976,-184.3716 414,-180 436.3032,-147.5259 427.6968,-131.4741 450,-99 451.1259,-97.3607 452.3587,-95.7348 453.6579,-94.1416"/>
<polygon fill="#000000" stroke="#000000" points="456.4177,-96.3077 460.5195,-86.539 451.2212,-91.6176 456.4177,-96.3077"/>
</g>
<!-- h33&#45;&gt;h40 -->
<g id="edge71" class="edge">
<title>h33&#45;&gt;h40</title>
<path fill="none" stroke="#000000" d="M412.07,-160.521C421.5102,-163.3531 432.4169,-166.6251 442.564,-169.6692"/>
<polygon fill="#000000" stroke="#000000" points="441.7915,-173.0915 452.3755,-172.6126 443.803,-166.3867 441.7915,-173.0915"/>
</g>
<!-- h33&#45;&gt;h41 -->
<g id="edge72" class="edge">
<title>h33&#45;&gt;h41</title>
<path fill="none" stroke="#000000" d="M412.07,-145.479C421.5102,-142.6469 432.4169,-139.3749 442.564,-136.3308"/>
<polygon fill="#000000" stroke="#000000" points="443.803,-139.6133 452.3755,-133.3874 441.7915,-132.9085 443.803,-139.6133"/>
</g>
<!-- h33&#45;&gt;h42 -->
<g id="edge73" class="edge">
<title>h33&#45;&gt;h42</title>
<path fill="none" stroke="#000000" d="M403.0902,-138.5188C416.9542,-126.0413 437.1669,-107.8498 452.9519,-93.6433"/>
<polygon fill="#000000" stroke="#000000" points="455.6541,-95.9201 460.7457,-86.6289 450.9713,-90.717 455.6541,-95.9201"/>
</g>
<!-- o0 -->
<g id="node23" class="node">
<title>o0</title>
<ellipse fill="none" stroke="#000000" cx="567" cy="-180" rx="27" ry="18"/>
<text text-anchor="middle" x="567" y="-176.3" font-family="Times,serif" font-size="14.00" fill="#000000">o0</text>
</g>
<!-- h40&#45;&gt;o0 -->
<g id="edge74" class="edge">
<title>h40&#45;&gt;o0</title>
<path fill="none" stroke="#000000" d="M504.003,-180C512.0277,-180 520.9665,-180 529.5309,-180"/>
<polygon fill="#000000" stroke="#000000" points="529.7051,-183.5001 539.705,-180 529.705,-176.5001 529.7051,-183.5001"/>
</g>
<!-- o1 -->
<g id="node24" class="node">
<title>o1</title>
<ellipse fill="none" stroke="#000000" cx="567" cy="-126" rx="27" ry="18"/>
<text text-anchor="middle" x="567" y="-122.3" font-family="Times,serif" font-size="14.00" fill="#000000">o1</text>
</g>
<!-- h40&#45;&gt;o1 -->
<g id="edge75" class="edge">
<title>h40&#45;&gt;o1</title>
<path fill="none" stroke="#000000" d="M497.4224,-167.7466C509.3897,-160.5662 524.7024,-151.3785 537.9143,-143.4514"/>
<polygon fill="#000000" stroke="#000000" points="539.8842,-146.3512 546.6584,-138.2049 536.2827,-140.3487 539.8842,-146.3512"/>
</g>
<!-- o2 -->
<g id="node25" class="node">
<title>o2</title>
<ellipse fill="none" stroke="#000000" cx="567" cy="-72" rx="27" ry="18"/>
<text text-anchor="middle" x="567" y="-68.3" font-family="Times,serif" font-size="14.00" fill="#000000">o2</text>
</g>
<!-- h40&#45;&gt;o2 -->
<g id="edge76" class="edge">
<title>h40&#45;&gt;o2</title>
<path fill="none" stroke="#000000" d="M492.9703,-165.0777C496.7402,-161.276 500.6378,-157.1013 504,-153 522.287,-130.6934 521.713,-121.3066 540,-99 541.2608,-97.462 542.597,-95.9137 543.9734,-94.3786"/>
<polygon fill="#000000" stroke="#000000" points="546.6983,-96.5913 551.0297,-86.9223 541.614,-91.7798 546.6983,-96.5913"/>
</g>
<!-- h41&#45;&gt;o0 -->
<g id="edge77" class="edge">
<title>h41&#45;&gt;o0</title>
<path fill="none" stroke="#000000" d="M497.4224,-138.2534C509.3897,-145.4338 524.7024,-154.6215 537.9143,-162.5486"/>
<polygon fill="#000000" stroke="#000000" points="536.2827,-165.6513 546.6584,-167.7951 539.8842,-159.6488 536.2827,-165.6513"/>
</g>
<!-- h41&#45;&gt;o1 -->
<g id="edge78" class="edge">
<title>h41&#45;&gt;o1</title>
<path fill="none" stroke="#000000" d="M504.003,-126C512.0277,-126 520.9665,-126 529.5309,-126"/>
<polygon fill="#000000" stroke="#000000" points="529.7051,-129.5001 539.705,-126 529.705,-122.5001 529.7051,-129.5001"/>
</g>
<!-- h41&#45;&gt;o2 -->
<g id="edge79" class="edge">
<title>h41&#45;&gt;o2</title>
<path fill="none" stroke="#000000" d="M497.4224,-113.7466C509.3897,-106.5662 524.7024,-97.3785 537.9143,-89.4514"/>
<polygon fill="#000000" stroke="#000000" points="539.8842,-92.3512 546.6584,-84.2049 536.2827,-86.3487 539.8842,-92.3512"/>
</g>
<!-- h42&#45;&gt;o0 -->
<g id="edge80" class="edge">
<title>h42&#45;&gt;o0</title>
<path fill="none" stroke="#000000" d="M492.9703,-86.9223C496.7402,-90.724 500.6378,-94.8987 504,-99 522.287,-121.3066 521.713,-130.6934 540,-153 541.2608,-154.538 542.597,-156.0863 543.9734,-157.6214"/>
<polygon fill="#000000" stroke="#000000" points="541.614,-160.2202 551.0297,-165.0777 546.6983,-155.4087 541.614,-160.2202"/>
</g>
<!-- h42&#45;&gt;o1 -->
<g id="edge81" class="edge">
<title>h42&#45;&gt;o1</title>
<path fill="none" stroke="#000000" d="M497.4224,-84.2534C509.3897,-91.4338 524.7024,-100.6215 537.9143,-108.5486"/>
<polygon fill="#000000" stroke="#000000" points="536.2827,-111.6513 546.6584,-113.7951 539.8842,-105.6488 536.2827,-111.6513"/>
</g>
<!-- h42&#45;&gt;o2 -->
<g id="edge82" class="edge">
<title>h42&#45;&gt;o2</title>
<path fill="none" stroke="#000000" d="M504.003,-72C512.0277,-72 520.9665,-72 529.5309,-72"/>
<polygon fill="#000000" stroke="#000000" points="529.7051,-75.5001 539.705,-72 529.705,-68.5001 529.7051,-75.5001"/>
</g>
</g>
</svg>
