<?xml version="1.0" encoding="UTF-8" standalone="no"?>
<!DOCTYPE svg PUBLIC "-//W3C//DTD SVG 1.1//EN"
 "http://www.w3.org/Graphics/SVG/1.1/DTD/svg11.dtd">
<!-- Generated by graphviz version 2.40.1 (20161225.0304)
 -->
<!-- Title: %3 Pages: 1 -->
<svg width="98pt" height="116pt"
 viewBox="0.00 0.00 98.00 116.00" xmlns="http://www.w3.org/2000/svg" xmlns:xlink="http://www.w3.org/1999/xlink">
<g id="graph0" class="graph" transform="scale(1 1) rotate(0) translate(4 112)">
<title>%3</title>
<polygon fill="#ffffff" stroke="transparent" points="-4,4 -4,-112 94,-112 94,4 -4,4"/>
<!-- A -->
<g id="node1" class="node">
<title>A</title>
<ellipse fill="none" stroke="#000000" cx="18" cy="-90" rx="18" ry="18"/>
<text text-anchor="middle" x="18" y="-86.3" font-family="Times,serif" font-size="14.00" fill="#000000">A</text>
</g>
<!-- C -->
<g id="node2" class="node">
<title>C</title>
<ellipse fill="none" stroke="#000000" cx="72" cy="-90" rx="18" ry="18"/>
<text text-anchor="middle" x="72" y="-86.3" font-family="Times,serif" font-size="14.00" fill="#000000">C</text>
</g>
<!-- A&#45;&gt;C -->
<g id="edge1" class="edge">
<title>A&#45;&gt;C</title>
<path fill="none" stroke="#000000" d="M32.7656,-79.2719C37.6188,-77.0727 42.472,-76.1822 47.3253,-76.6001"/>
<polygon fill="#000000" stroke="#000000" points="46.72,-80.0622 57.2871,-79.2958 48.5485,-73.3052 46.72,-80.0622"/>
</g>
<!-- B -->
<g id="node3" class="node">
<title>B</title>
<ellipse fill="none" stroke="#000000" cx="18" cy="-18" rx="18" ry="18"/>
<text text-anchor="middle" x="18" y="-14.3" font-family="Times,serif" font-size="14.00" fill="#000000">B</text>
</g>
<!-- A&#45;&gt;B -->
<g id="edge5" class="edge">
<title>A&#45;&gt;B</title>
<path fill="none" stroke="#000000" d="M12.1601,-72.937C11.2975,-64.8072 11.0481,-54.8761 11.4119,-45.7047"/>
<polygon fill="#000000" stroke="#000000" points="14.9233,-45.658 12.1206,-35.4407 7.94,-45.1758 14.9233,-45.658"/>
</g>
<!-- C&#45;&gt;A -->
<g id="edge2" class="edge">
<title>C&#45;&gt;A</title>
<path fill="none" stroke="#000000" d="M57.2871,-100.7042C52.4339,-102.9128 47.5807,-103.8128 42.7275,-103.4044"/>
<polygon fill="#000000" stroke="#000000" points="43.3313,-99.9425 32.7656,-100.7281 41.5151,-106.7028 43.3313,-99.9425"/>
</g>
<!-- B&#45;&gt;A -->
<g id="edge6" class="edge">
<title>B&#45;&gt;A</title>
<path fill="none" stroke="#000000" d="M23.8794,-35.4407C24.7231,-43.6255 24.9536,-53.572 24.5709,-62.7193"/>
<polygon fill="#000000" stroke="#000000" points="21.0625,-62.7127 23.8399,-72.937 28.0446,-63.2123 21.0625,-62.7127"/>
</g>
<!-- D -->
<g id="node4" class="node">
<title>D</title>
<ellipse fill="none" stroke="#000000" cx="72" cy="-18" rx="18" ry="18"/>
<text text-anchor="middle" x="72" y="-14.3" font-family="Times,serif" font-size="14.00" fill="#000000">D</text>
</g>
<!-- B&#45;&gt;D -->
<g id="edge3" class="edge">
<title>B&#45;&gt;D</title>
<path fill="none" stroke="#000000" d="M32.7656,-7.2719C37.6188,-5.0727 42.472,-4.1822 47.3253,-4.6001"/>
<polygon fill="#000000" stroke="#000000" points="46.72,-8.0622 57.2871,-7.2958 48.5485,-1.3052 46.72,-8.0622"/>
</g>
<!-- D&#45;&gt;C -->
<g id="edge7" class="edge">
<title>D&#45;&gt;C</title>
<path fill="none" stroke="#000000" d="M72,-36.4133C72,-44.0593 72,-53.1084 72,-61.5726"/>
<polygon fill="#000000" stroke="#000000" points="68.5001,-61.8313 72,-71.8314 75.5001,-61.8314 68.5001,-61.8313"/>
</g>
<!-- D&#45;&gt;B -->
<g id="edge4" class="edge">
<title>D&#45;&gt;B</title>
<path fill="none" stroke="#000000" d="M57.2871,-28.7042C52.4339,-30.9128 47.5807,-31.8128 42.7275,-31.4044"/>
<polygon fill="#000000" stroke="#000000" points="43.3313,-27.9425 32.7656,-28.7281 41.5151,-34.7028 43.3313,-27.9425"/>
</g>
</g>
</svg>
