<?xml version="1.0" encoding="UTF-8" standalone="no"?>
<!DOCTYPE svg PUBLIC "-//W3C//DTD SVG 1.1//EN"
 "http://www.w3.org/Graphics/SVG/1.1/DTD/svg11.dtd">
<!-- Generated by graphviz version 2.40.1 (20161225.0304)
 -->
<!-- Title: %3 Pages: 1 -->
<svg width="91pt" height="204pt"
 viewBox="0.00 0.00 90.60 204.00" xmlns="http://www.w3.org/2000/svg" xmlns:xlink="http://www.w3.org/1999/xlink">
<g id="graph0" class="graph" transform="scale(1 1) rotate(0) translate(4 200)">
<title>%3</title>
<polygon fill="#ffffff" stroke="transparent" points="-4,4 -4,-200 86.5952,-200 86.5952,4 -4,4"/>
<!-- A -->
<g id="node1" class="node">
<title>A</title>
<ellipse fill="none" stroke="#000000" cx="27.2976" cy="-178" rx="27.0966" ry="18"/>
<text text-anchor="middle" x="27.2976" y="-174.3" font-family="Times,serif" font-size="14.00" fill="#000000">Dot A</text>
</g>
<!-- B -->
<g id="node2" class="node">
<title>B</title>
<ellipse fill="none" stroke="#000000" cx="27.2976" cy="-105" rx="27.0966" ry="18"/>
<text text-anchor="middle" x="27.2976" y="-101.3" font-family="Times,serif" font-size="14.00" fill="#000000">Dot B</text>
</g>
<!-- A&#45;&gt;B -->
<g id="edge1" class="edge">
<title>A&#45;&gt;B</title>
<path fill="none" stroke="#000000" d="M21.4193,-160.3287C20.5861,-152.14 20.3502,-142.2101 20.7116,-133.0354"/>
<polygon fill="#000000" stroke="#000000" points="24.2236,-132.976 21.4102,-122.7615 17.2397,-132.501 24.2236,-132.976"/>
</g>
<!-- A&#45;&gt;B -->
<g id="edge3" class="edge">
<title>A&#45;&gt;B</title>
<path fill="none" stroke="#000000" d="M33.1758,-160.3287C34.0091,-152.14 34.245,-142.2101 33.8836,-133.0354"/>
<polygon fill="#000000" stroke="#000000" points="37.3554,-132.501 33.185,-122.7615 30.3716,-132.976 37.3554,-132.501"/>
</g>
<!-- C -->
<g id="node3" class="node">
<title>C</title>
<ellipse fill="none" stroke="#000000" cx="55.2976" cy="-18" rx="27.0966" ry="18"/>
<text text-anchor="middle" x="55.2976" y="-14.3" font-family="Times,serif" font-size="14.00" fill="#000000">Dot C</text>
</g>
<!-- A&#45;&gt;C -->
<g id="edge2" class="edge">
<title>A&#45;&gt;C</title>
<path fill="none" stroke="#000000" d="M41.0557,-162.417C49.2692,-152.0371 58.9279,-137.6548 63.2976,-123 70.8846,-97.5553 67.2882,-67.1866 62.7557,-45.6704"/>
<polygon fill="#000000" stroke="#000000" points="66.1558,-44.8385 60.5003,-35.8793 59.3344,-46.4098 66.1558,-44.8385"/>
</g>
<!-- B&#45;&gt;C -->
<g id="edge4" class="edge">
<title>B&#45;&gt;C</title>
<path fill="none" stroke="#000000" d="M33.0992,-86.9735C36.9541,-74.9958 42.0894,-59.0396 46.4499,-45.4912"/>
<polygon fill="#000000" stroke="#000000" points="49.8672,-46.2971 49.5992,-35.7057 43.2038,-44.1525 49.8672,-46.2971"/>
<text text-anchor="middle" x="50.7976" y="-57.8" font-family="Times,serif" font-size="14.00" fill="#000000">test</text>
</g>
</g>
</svg>
