<?xml version="1.0" encoding="UTF-8" standalone="no"?>
<!DOCTYPE svg PUBLIC "-//W3C//DTD SVG 1.1//EN"
 "http://www.w3.org/Graphics/SVG/1.1/DTD/svg11.dtd">
<!-- Generated by graphviz version 2.40.1 (20161225.0304)
 -->
<!-- Title: %3 Pages: 1 -->
<svg width="208pt" height="316pt"
 viewBox="0.00 0.00 207.50 316.00" xmlns="http://www.w3.org/2000/svg" xmlns:xlink="http://www.w3.org/1999/xlink">
<g id="graph0" class="graph" transform="scale(1 1) rotate(0) translate(4 312)">
<title>%3</title>
<polygon fill="#ffffff" stroke="transparent" points="-4,4 -4,-312 203.5,-312 203.5,4 -4,4"/>
<!-- A -->
<g id="node1" class="node">
<title>A</title>
<ellipse fill="none" stroke="#000000" cx="35" cy="-290" rx="31.6951" ry="18"/>
<text text-anchor="middle" x="35" y="-286.3" font-family="Times,serif" font-size="14.00" fill="#000000">Node A</text>
</g>
<!-- B -->
<g id="node2" class="node">
<title>B</title>
<ellipse fill="none" stroke="#000000" cx="99" cy="-196.5" rx="31.6951" ry="18"/>
<text text-anchor="middle" x="99" y="-192.8" font-family="Times,serif" font-size="14.00" fill="#000000">Node B</text>
</g>
<!-- A&#45;&gt;B -->
<g id="edge1" class="edge">
<title>A&#45;&gt;B</title>
<path fill="none" stroke="#000000" d="M46.7386,-272.8507C56.4819,-258.6162 70.4825,-238.1622 81.5408,-222.0068"/>
<polygon fill="#000000" stroke="#000000" points="84.5756,-223.7696 87.3358,-213.5406 78.7992,-219.8157 84.5756,-223.7696"/>
<text text-anchor="middle" x="84" y="-242.8" font-family="Times,serif" font-size="14.00" fill="#000000">Edge 1</text>
</g>
<!-- C -->
<g id="node3" class="node">
<title>C</title>
<ellipse fill="none" stroke="#000000" cx="27" cy="-97" rx="27" ry="18"/>
<text text-anchor="middle" x="27" y="-93.3" font-family="Times,serif" font-size="14.00" fill="#000000">C</text>
</g>
<!-- A&#45;&gt;C -->
<g id="edge2" class="edge">
<title>A&#45;&gt;C</title>
<path fill="none" stroke="#000000" d="M32.696,-271.8763C31.0425,-257.9807 28.9459,-238.3127 28,-221 26.2095,-188.2306 26.1968,-150.5187 26.4796,-125.3703"/>
<polygon fill="#000000" stroke="#000000" points="29.983,-125.1347 26.6197,-115.0879 22.9836,-125.0393 29.983,-125.1347"/>
<text text-anchor="middle" x="43" y="-192.8" font-family="Times,serif" font-size="14.00" fill="#000000">Edge 2</text>
</g>
<!-- B&#45;&gt;C -->
<g id="edge3" class="edge">
<title>B&#45;&gt;C</title>
<path fill="none" stroke="#000000" d="M86.7862,-179.6212C75.2702,-163.7068 57.8765,-139.6696 44.8144,-121.6186"/>
<polygon fill="#000000" stroke="#000000" points="47.4928,-119.3495 38.7949,-113.2999 41.8217,-123.4531 47.4928,-119.3495"/>
</g>
<!-- E -->
<g id="node5" class="node">
<title>E</title>
<polygon fill="#cccccc" stroke="#000000" points="134,-121 86,-121 86,-73 134,-73 134,-121"/>
<text text-anchor="middle" x="110" y="-93.3" font-family="Times,serif" font-size="14.00" fill="#000000">Node E</text>
</g>
<!-- B&#45;&gt;E -->
<g id="edge7" class="edge">
<title>B&#45;&gt;E</title>
<path fill="none" stroke="#ff0000" d="M101.0176,-178.2502C102.4727,-165.0878 104.4803,-146.9282 106.2285,-131.1146"/>
<polygon fill="#ff0000" stroke="#ff0000" points="109.7114,-131.4618 107.3315,-121.1378 102.7538,-130.6926 109.7114,-131.4618"/>
</g>
<!-- D -->
<g id="node4" class="node">
<title>D</title>
<polygon fill="#cccccc" stroke="#000000" points="199.5,-221 150.5,-221 150.5,-172 199.5,-172 199.5,-221"/>
<text text-anchor="middle" x="175" y="-192.8" font-family="Times,serif" font-size="14.00" fill="#000000">Node D</text>
</g>
<!-- D&#45;&gt;E -->
<g id="edge4" class="edge">
<title>D&#45;&gt;E</title>
<path fill="none" stroke="#000000" d="M150.0802,-174.5856C143.9536,-168.3604 137.7863,-161.2816 133,-154 128.2912,-146.8363 124.2727,-138.5555 120.9751,-130.5641"/>
<polygon fill="#000000" stroke="#000000" points="124.1727,-129.1282 117.3122,-121.0545 117.6405,-131.6443 124.1727,-129.1282"/>
<text text-anchor="middle" x="148" y="-142.8" font-family="Times,serif" font-size="14.00" fill="#000000">Edge 3</text>
</g>
<!-- F -->
<g id="node6" class="node">
<title>F</title>
<polygon fill="#cccccc" stroke="#000000" points="165,-36 129,-36 129,0 165,0 165,-36"/>
<text text-anchor="middle" x="147" y="-14.3" font-family="Times,serif" font-size="14.00" fill="#000000">F</text>
</g>
<!-- D&#45;&gt;F -->
<g id="edge5" class="edge">
<title>D&#45;&gt;F</title>
<path fill="none" stroke="#000000" d="M171.1067,-171.6803C165.9319,-138.691 156.8124,-80.5543 151.3958,-46.0233"/>
<polygon fill="#000000" stroke="#000000" points="154.8496,-45.4553 149.8421,-36.1186 147.9342,-46.5402 154.8496,-45.4553"/>
<text text-anchor="middle" x="178" y="-93.3" font-family="Times,serif" font-size="14.00" fill="#000000">Edge 4</text>
</g>
<!-- E&#45;&gt;F -->
<g id="edge6" class="edge">
<title>E&#45;&gt;F</title>
<path fill="none" stroke="#000000" d="M121.3023,-72.8681C125.3601,-64.2042 129.9652,-54.3716 134.1451,-45.4468"/>
<polygon fill="#000000" stroke="#000000" points="137.396,-46.7577 138.4679,-36.2172 131.0569,-43.7886 137.396,-46.7577"/>
</g>
</g>
</svg>
