<?xml version="1.0" encoding="UTF-8" standalone="no"?>
<!DOCTYPE svg PUBLIC "-//W3C//DTD SVG 1.1//EN"
 "http://www.w3.org/Graphics/SVG/1.1/DTD/svg11.dtd">
<!-- Generated by graphviz version 2.38.0 (20140413.2041)
 -->
<!-- Title: Tree Pages: 1 -->
<svg width="550pt" height="477pt"
 viewBox="0.00 0.00 550.00 477.00" xmlns="http://www.w3.org/2000/svg" xmlns:xlink="http://www.w3.org/1999/xlink">
<g id="graph0" class="graph" transform="scale(1 1) rotate(0) translate(4 473)">
<title>Tree</title>
<polygon fill="white" stroke="none" points="-4,4 -4,-473 546,-473 546,4 -4,4"/>
<!-- 0 -->
<g id="node1" class="node"><title>0</title>
<polygon fill="none" stroke="black" points="377.5,-469 273.5,-469 273.5,-401 377.5,-401 377.5,-469"/>
<text text-anchor="middle" x="325.5" y="-453.8" font-family="Times New Roman,serif" font-size="14.00">X[0] &lt;= 5.45</text>
<text text-anchor="middle" x="325.5" y="-438.8" font-family="Times New Roman,serif" font-size="14.00">gini = 0.5</text>
<text text-anchor="middle" x="325.5" y="-423.8" font-family="Times New Roman,serif" font-size="14.00">samples = 70</text>
<text text-anchor="middle" x="325.5" y="-408.8" font-family="Times New Roman,serif" font-size="14.00">value = [35, 35]</text>
</g>
<!-- 1 -->
<g id="node2" class="node"><title>1</title>
<polygon fill="none" stroke="black" points="316.5,-365 218.5,-365 218.5,-297 316.5,-297 316.5,-365"/>
<text text-anchor="middle" x="267.5" y="-349.8" font-family="Times New Roman,serif" font-size="14.00">X[1] &lt;= 2.85</text>
<text text-anchor="middle" x="267.5" y="-334.8" font-family="Times New Roman,serif" font-size="14.00">gini = 0.234</text>
<text text-anchor="middle" x="267.5" y="-319.8" font-family="Times New Roman,serif" font-size="14.00">samples = 37</text>
<text text-anchor="middle" x="267.5" y="-304.8" font-family="Times New Roman,serif" font-size="14.00">value = [32, 5]</text>
</g>
<!-- 0&#45;&gt;1 -->
<g id="edge1" class="edge"><title>0&#45;&gt;1</title>
<path fill="none" stroke="black" d="M306.669,-400.884C301.807,-392.332 296.508,-383.013 291.423,-374.072"/>
<polygon fill="black" stroke="black" points="294.421,-372.262 286.435,-365.299 288.335,-375.722 294.421,-372.262"/>
<text text-anchor="middle" x="279.806" y="-385.704" font-family="Times New Roman,serif" font-size="14.00">True</text>
</g>
<!-- 10 -->
<g id="node11" class="node"><title>10</title>
<polygon fill="none" stroke="black" points="432.5,-365 334.5,-365 334.5,-297 432.5,-297 432.5,-365"/>
<text text-anchor="middle" x="383.5" y="-349.8" font-family="Times New Roman,serif" font-size="14.00">X[1] &lt;= 3.45</text>
<text text-anchor="middle" x="383.5" y="-334.8" font-family="Times New Roman,serif" font-size="14.00">gini = 0.165</text>
<text text-anchor="middle" x="383.5" y="-319.8" font-family="Times New Roman,serif" font-size="14.00">samples = 33</text>
<text text-anchor="middle" x="383.5" y="-304.8" font-family="Times New Roman,serif" font-size="14.00">value = [3, 30]</text>
</g>
<!-- 0&#45;&gt;10 -->
<g id="edge10" class="edge"><title>0&#45;&gt;10</title>
<path fill="none" stroke="black" d="M344.331,-400.884C349.193,-392.332 354.492,-383.013 359.577,-374.072"/>
<polygon fill="black" stroke="black" points="362.665,-375.722 364.565,-365.299 356.579,-372.262 362.665,-375.722"/>
<text text-anchor="middle" x="371.194" y="-385.704" font-family="Times New Roman,serif" font-size="14.00">False</text>
</g>
<!-- 2 -->
<g id="node3" class="node"><title>2</title>
<polygon fill="none" stroke="black" points="200,-261 109,-261 109,-193 200,-193 200,-261"/>
<text text-anchor="middle" x="154.5" y="-245.8" font-family="Times New Roman,serif" font-size="14.00">X[0] &lt;= 4.7</text>
<text text-anchor="middle" x="154.5" y="-230.8" font-family="Times New Roman,serif" font-size="14.00">gini = 0.32</text>
<text text-anchor="middle" x="154.5" y="-215.8" font-family="Times New Roman,serif" font-size="14.00">samples = 5</text>
<text text-anchor="middle" x="154.5" y="-200.8" font-family="Times New Roman,serif" font-size="14.00">value = [1, 4]</text>
</g>
<!-- 1&#45;&gt;2 -->
<g id="edge2" class="edge"><title>1&#45;&gt;2</title>
<path fill="none" stroke="black" d="M230.812,-296.884C220.648,-287.709 209.505,-277.65 198.95,-268.123"/>
<polygon fill="black" stroke="black" points="201.159,-265.402 191.39,-261.299 196.468,-270.598 201.159,-265.402"/>
</g>
<!-- 5 -->
<g id="node6" class="node"><title>5</title>
<polygon fill="none" stroke="black" points="316.5,-261 218.5,-261 218.5,-193 316.5,-193 316.5,-261"/>
<text text-anchor="middle" x="267.5" y="-245.8" font-family="Times New Roman,serif" font-size="14.00">X[0] &lt;= 5.35</text>
<text text-anchor="middle" x="267.5" y="-230.8" font-family="Times New Roman,serif" font-size="14.00">gini = 0.061</text>
<text text-anchor="middle" x="267.5" y="-215.8" font-family="Times New Roman,serif" font-size="14.00">samples = 32</text>
<text text-anchor="middle" x="267.5" y="-200.8" font-family="Times New Roman,serif" font-size="14.00">value = [31, 1]</text>
</g>
<!-- 1&#45;&gt;5 -->
<g id="edge5" class="edge"><title>1&#45;&gt;5</title>
<path fill="none" stroke="black" d="M267.5,-296.884C267.5,-288.778 267.5,-279.982 267.5,-271.472"/>
<polygon fill="black" stroke="black" points="271,-271.299 267.5,-261.299 264,-271.299 271,-271.299"/>
</g>
<!-- 3 -->
<g id="node4" class="node"><title>3</title>
<polygon fill="none" stroke="black" points="91,-149.5 0,-149.5 0,-96.5 91,-96.5 91,-149.5"/>
<text text-anchor="middle" x="45.5" y="-134.3" font-family="Times New Roman,serif" font-size="14.00">gini = 0.0</text>
<text text-anchor="middle" x="45.5" y="-119.3" font-family="Times New Roman,serif" font-size="14.00">samples = 1</text>
<text text-anchor="middle" x="45.5" y="-104.3" font-family="Times New Roman,serif" font-size="14.00">value = [1, 0]</text>
</g>
<!-- 2&#45;&gt;3 -->
<g id="edge3" class="edge"><title>2&#45;&gt;3</title>
<path fill="none" stroke="black" d="M119.111,-192.884C106.653,-181.226 92.6699,-168.141 80.2641,-156.532"/>
<polygon fill="black" stroke="black" points="82.4644,-153.797 72.7713,-149.52 77.6815,-158.908 82.4644,-153.797"/>
</g>
<!-- 4 -->
<g id="node5" class="node"><title>4</title>
<polygon fill="none" stroke="black" points="200,-149.5 109,-149.5 109,-96.5 200,-96.5 200,-149.5"/>
<text text-anchor="middle" x="154.5" y="-134.3" font-family="Times New Roman,serif" font-size="14.00">gini = 0.0</text>
<text text-anchor="middle" x="154.5" y="-119.3" font-family="Times New Roman,serif" font-size="14.00">samples = 4</text>
<text text-anchor="middle" x="154.5" y="-104.3" font-family="Times New Roman,serif" font-size="14.00">value = [0, 4]</text>
</g>
<!-- 2&#45;&gt;4 -->
<g id="edge4" class="edge"><title>2&#45;&gt;4</title>
<path fill="none" stroke="black" d="M154.5,-192.884C154.5,-182.326 154.5,-170.597 154.5,-159.854"/>
<polygon fill="black" stroke="black" points="158,-159.52 154.5,-149.52 151,-159.52 158,-159.52"/>
</g>
<!-- 6 -->
<g id="node7" class="node"><title>6</title>
<polygon fill="none" stroke="black" points="316.5,-149.5 218.5,-149.5 218.5,-96.5 316.5,-96.5 316.5,-149.5"/>
<text text-anchor="middle" x="267.5" y="-134.3" font-family="Times New Roman,serif" font-size="14.00">gini = 0.0</text>
<text text-anchor="middle" x="267.5" y="-119.3" font-family="Times New Roman,serif" font-size="14.00">samples = 28</text>
<text text-anchor="middle" x="267.5" y="-104.3" font-family="Times New Roman,serif" font-size="14.00">value = [28, 0]</text>
</g>
<!-- 5&#45;&gt;6 -->
<g id="edge6" class="edge"><title>5&#45;&gt;6</title>
<path fill="none" stroke="black" d="M267.5,-192.884C267.5,-182.326 267.5,-170.597 267.5,-159.854"/>
<polygon fill="black" stroke="black" points="271,-159.52 267.5,-149.52 264,-159.52 271,-159.52"/>
</g>
<!-- 7 -->
<g id="node8" class="node"><title>7</title>
<polygon fill="none" stroke="black" points="426,-157 335,-157 335,-89 426,-89 426,-157"/>
<text text-anchor="middle" x="380.5" y="-141.8" font-family="Times New Roman,serif" font-size="14.00">X[1] &lt;= 3.2</text>
<text text-anchor="middle" x="380.5" y="-126.8" font-family="Times New Roman,serif" font-size="14.00">gini = 0.375</text>
<text text-anchor="middle" x="380.5" y="-111.8" font-family="Times New Roman,serif" font-size="14.00">samples = 4</text>
<text text-anchor="middle" x="380.5" y="-96.8" font-family="Times New Roman,serif" font-size="14.00">value = [3, 1]</text>
</g>
<!-- 5&#45;&gt;7 -->
<g id="edge7" class="edge"><title>5&#45;&gt;7</title>
<path fill="none" stroke="black" d="M304.188,-192.884C314.352,-183.709 325.495,-173.65 336.05,-164.123"/>
<polygon fill="black" stroke="black" points="338.532,-166.598 343.61,-157.299 333.841,-161.402 338.532,-166.598"/>
</g>
<!-- 8 -->
<g id="node9" class="node"><title>8</title>
<polygon fill="none" stroke="black" points="371,-53 280,-53 280,-0 371,-0 371,-53"/>
<text text-anchor="middle" x="325.5" y="-37.8" font-family="Times New Roman,serif" font-size="14.00">gini = 0.0</text>
<text text-anchor="middle" x="325.5" y="-22.8" font-family="Times New Roman,serif" font-size="14.00">samples = 1</text>
<text text-anchor="middle" x="325.5" y="-7.8" font-family="Times New Roman,serif" font-size="14.00">value = [0, 1]</text>
</g>
<!-- 7&#45;&gt;8 -->
<g id="edge8" class="edge"><title>7&#45;&gt;8</title>
<path fill="none" stroke="black" d="M361.264,-88.9485C356.206,-80.2579 350.736,-70.8608 345.633,-62.0917"/>
<polygon fill="black" stroke="black" points="348.534,-60.1189 340.479,-53.2367 342.484,-63.6401 348.534,-60.1189"/>
</g>
<!-- 9 -->
<g id="node10" class="node"><title>9</title>
<polygon fill="none" stroke="black" points="480,-53 389,-53 389,-0 480,-0 480,-53"/>
<text text-anchor="middle" x="434.5" y="-37.8" font-family="Times New Roman,serif" font-size="14.00">gini = 0.0</text>
<text text-anchor="middle" x="434.5" y="-22.8" font-family="Times New Roman,serif" font-size="14.00">samples = 3</text>
<text text-anchor="middle" x="434.5" y="-7.8" font-family="Times New Roman,serif" font-size="14.00">value = [3, 0]</text>
</g>
<!-- 7&#45;&gt;9 -->
<g id="edge9" class="edge"><title>7&#45;&gt;9</title>
<path fill="none" stroke="black" d="M399.387,-88.9485C404.353,-80.2579 409.722,-70.8608 414.733,-62.0917"/>
<polygon fill="black" stroke="black" points="417.871,-63.6557 419.793,-53.2367 411.793,-60.1826 417.871,-63.6557"/>
</g>
<!-- 11 -->
<g id="node12" class="node"><title>11</title>
<polygon fill="none" stroke="black" points="432.5,-253.5 334.5,-253.5 334.5,-200.5 432.5,-200.5 432.5,-253.5"/>
<text text-anchor="middle" x="383.5" y="-238.3" font-family="Times New Roman,serif" font-size="14.00">gini = 0.0</text>
<text text-anchor="middle" x="383.5" y="-223.3" font-family="Times New Roman,serif" font-size="14.00">samples = 30</text>
<text text-anchor="middle" x="383.5" y="-208.3" font-family="Times New Roman,serif" font-size="14.00">value = [0, 30]</text>
</g>
<!-- 10&#45;&gt;11 -->
<g id="edge11" class="edge"><title>10&#45;&gt;11</title>
<path fill="none" stroke="black" d="M383.5,-296.884C383.5,-286.326 383.5,-274.597 383.5,-263.854"/>
<polygon fill="black" stroke="black" points="387,-263.52 383.5,-253.52 380,-263.52 387,-263.52"/>
</g>
<!-- 12 -->
<g id="node13" class="node"><title>12</title>
<polygon fill="none" stroke="black" points="542,-253.5 451,-253.5 451,-200.5 542,-200.5 542,-253.5"/>
<text text-anchor="middle" x="496.5" y="-238.3" font-family="Times New Roman,serif" font-size="14.00">gini = 0.0</text>
<text text-anchor="middle" x="496.5" y="-223.3" font-family="Times New Roman,serif" font-size="14.00">samples = 3</text>
<text text-anchor="middle" x="496.5" y="-208.3" font-family="Times New Roman,serif" font-size="14.00">value = [3, 0]</text>
</g>
<!-- 10&#45;&gt;12 -->
<g id="edge12" class="edge"><title>10&#45;&gt;12</title>
<path fill="none" stroke="black" d="M420.188,-296.884C433.103,-285.226 447.599,-272.141 460.46,-260.532"/>
<polygon fill="black" stroke="black" points="463.15,-262.819 468.228,-253.52 458.46,-257.622 463.15,-262.819"/>
</g>
</g>
</svg>
